<svg xmlns="http://www.w3.org/2000/svg" width="1100" height="900" viewBox="0 0 1100 900" fill="none">
  <rect width="1100" height="900" fill="#fafaf7"/>
  <text x="60" y="56" font-family="ui-monospace, monospace" font-size="11" letter-spacing="0.12em" fill="#8a8780">2020  FIGMA-FIRST</text>
  <text x="560" y="56" font-family="ui-monospace, monospace" font-size="11" letter-spacing="0.12em" fill="#8a8780">TODAY  CODE + TASTE</text>
  <path d="M60 720 L60 140 L200 240 L340 200 L480 280 L620 220 L760 300 L900 180 L900 720 Z" fill="none" stroke="#c8c4bc" stroke-width="2"/>
  <circle cx="60" cy="720" r="6" fill="#1a1916"/>
  <circle cx="200" cy="240" r="5" fill="#8a8780"/>
  <circle cx="480" cy="280" r="5" fill="#8a8780"/>
  <circle cx="760" cy="300" r="5" fill="#8a8780"/>
  <circle cx="900" cy="180" r="6" fill="#c45c2a"/>
  <text x="60" y="760" font-family="system-ui, sans-serif" font-size="14" fill="#5c5a54">Weeks in low-fi ’ hi-fi</text>
  <text x="60" y="788" font-family="system-ui, sans-serif" font-size="14" fill="#5c5a54">Heavy time in flows &amp; grayscale</text>
  <rect x="560" y="380" width="480" height="8" rx="2" fill="#c45c2a" opacity="0.9"/>
  <rect x="560" y="420" width="420" height="8" rx="2" fill="#e8e6e0"/>
  <rect x="560" y="460" width="380" height="8" rx="2" fill="#e8e6e0"/>
  <rect x="560" y="500" width="200" height="8" rx="2" fill="#e8e6e0"/>
  <text x="560" y="560" font-family="system-ui, sans-serif" font-size="14" fill="#5c5a54">Fast path to runnable UI</text>
  <text x="560" y="588" font-family="system-ui, sans-serif" font-size="14" fill="#5c5a54">Designer time ’ edit, remove, refine</text>
  <text x="560" y="660" font-family="ui-monospace, monospace" font-size="10" fill="#c45c2a" letter-spacing="0.06em">SCOUT FUEL / 1.5 WEEKS</text>
</svg>
