<svg width="1101" height="1173" viewBox="0 0 1101 1173" fill="none" xmlns="http://www.w3.org/2000/svg">
<defs>
  <style>
    .process-dashed-orbit {
      transform-origin: 547.892px 576.554px;
      animation: process-dashed-orbit-spin 90s linear infinite;
    }
    @keyframes process-dashed-orbit-spin {
      to { transform: rotate(360deg); }
    }
    @media (prefers-reduced-motion: reduce) {
      .process-dashed-orbit {
        animation: none;
      }
    }
  </style>
</defs>
<g class="process-dashed-orbit">
<circle cx="547.892" cy="576.554" r="480.453" stroke="#7D859A" stroke-width="7.55429" stroke-dasharray="36.26 36.26"/>
</g>
<rect x="450.341" y="233.68" width="195.908" height="66.4778" fill="#232729"/>
<path d="M493.864 257.471C495.951 257.471 497.775 257.885 499.335 258.712C500.896 259.539 502.099 260.705 502.945 262.209C503.81 263.695 504.243 265.415 504.243 267.37C504.243 269.307 503.81 271.027 502.945 272.531C502.099 274.036 500.887 275.201 499.307 276.029C497.747 276.856 495.932 277.27 493.864 277.27H486.447V257.471H493.864ZM493.554 273.096C495.378 273.096 496.797 272.597 497.813 271.601C498.828 270.604 499.335 269.194 499.335 267.37C499.335 265.547 498.828 264.127 497.813 263.112C496.797 262.096 495.378 261.589 493.554 261.589H491.27V273.096H493.554ZM509.439 259.897C508.593 259.897 507.897 259.652 507.352 259.163C506.825 258.656 506.562 258.035 506.562 257.302C506.562 256.55 506.825 255.929 507.352 255.441C507.897 254.933 508.593 254.679 509.439 254.679C510.266 254.679 510.943 254.933 511.469 255.441C512.015 255.929 512.287 256.55 512.287 257.302C512.287 258.035 512.015 258.656 511.469 259.163C510.943 259.652 510.266 259.897 509.439 259.897ZM511.836 261.532V277.27H507.013V261.532H511.836ZM521.809 277.495C520.436 277.495 519.214 277.26 518.142 276.79C517.071 276.32 516.224 275.681 515.604 274.872C514.984 274.045 514.636 273.124 514.56 272.108H519.327C519.383 272.654 519.637 273.096 520.088 273.434C520.539 273.772 521.094 273.942 521.752 273.942C522.354 273.942 522.814 273.829 523.134 273.603C523.473 273.359 523.642 273.049 523.642 272.672C523.642 272.221 523.407 271.892 522.937 271.685C522.467 271.46 521.705 271.215 520.652 270.952C519.524 270.689 518.584 270.416 517.832 270.134C517.08 269.833 516.431 269.373 515.886 268.752C515.341 268.113 515.068 267.258 515.068 266.186C515.068 265.283 515.313 264.466 515.801 263.732C516.309 262.98 517.042 262.388 518.001 261.955C518.979 261.523 520.135 261.307 521.47 261.307C523.444 261.307 524.995 261.796 526.124 262.773C527.27 263.751 527.929 265.048 528.098 266.665H523.642C523.567 266.12 523.322 265.688 522.908 265.368C522.514 265.048 521.987 264.889 521.329 264.889C520.765 264.889 520.333 265.001 520.032 265.227C519.731 265.434 519.581 265.725 519.581 266.101C519.581 266.553 519.816 266.891 520.286 267.117C520.774 267.342 521.527 267.568 522.542 267.793C523.708 268.094 524.657 268.395 525.39 268.696C526.124 268.978 526.763 269.448 527.308 270.106C527.872 270.745 528.164 271.61 528.182 272.701C528.182 273.622 527.919 274.449 527.393 275.183C526.885 275.897 526.142 276.461 525.165 276.875C524.206 277.288 523.087 277.495 521.809 277.495ZM530.249 269.401C530.249 267.765 530.579 266.336 531.237 265.114C531.913 263.892 532.844 262.952 534.029 262.294C535.232 261.636 536.605 261.307 538.146 261.307C540.12 261.307 541.766 261.824 543.082 262.858C544.417 263.892 545.291 265.349 545.705 267.229H540.572C540.139 266.026 539.303 265.424 538.062 265.424C537.178 265.424 536.473 265.772 535.946 266.468C535.42 267.145 535.157 268.122 535.157 269.401C535.157 270.68 535.42 271.667 535.946 272.362C536.473 273.039 537.178 273.378 538.062 273.378C539.303 273.378 540.139 272.776 540.572 271.573H545.705C545.291 273.415 544.417 274.863 543.082 275.916C541.747 276.969 540.102 277.495 538.146 277.495C536.605 277.495 535.232 277.166 534.029 276.508C532.844 275.85 531.913 274.91 531.237 273.688C530.579 272.466 530.249 271.037 530.249 269.401ZM555.523 277.495C553.982 277.495 552.59 277.166 551.349 276.508C550.127 275.85 549.159 274.91 548.444 273.688C547.749 272.466 547.401 271.037 547.401 269.401C547.401 267.784 547.758 266.364 548.473 265.142C549.187 263.901 550.165 262.952 551.406 262.294C552.647 261.636 554.038 261.307 555.58 261.307C557.121 261.307 558.513 261.636 559.754 262.294C560.995 262.952 561.972 263.901 562.687 265.142C563.401 266.364 563.758 267.784 563.758 269.401C563.758 271.018 563.392 272.447 562.659 273.688C561.944 274.91 560.957 275.85 559.697 276.508C558.456 277.166 557.065 277.495 555.523 277.495ZM555.523 273.321C556.445 273.321 557.225 272.983 557.864 272.306C558.522 271.629 558.851 270.661 558.851 269.401C558.851 268.141 558.532 267.173 557.892 266.496C557.272 265.819 556.501 265.481 555.58 265.481C554.64 265.481 553.859 265.819 553.239 266.496C552.618 267.154 552.308 268.122 552.308 269.401C552.308 270.661 552.609 271.629 553.211 272.306C553.831 272.983 554.602 273.321 555.523 273.321ZM573.471 272.757L576.884 261.532H582.017L576.433 277.27H570.482L564.898 261.532H570.059L573.471 272.757ZM598.957 269.147C598.957 269.598 598.929 270.068 598.872 270.557H587.958C588.033 271.535 588.343 272.287 588.889 272.814C589.453 273.321 590.139 273.575 590.947 273.575C592.151 273.575 592.987 273.067 593.457 272.052H598.59C598.327 273.086 597.848 274.017 597.152 274.844C596.475 275.671 595.62 276.32 594.585 276.79C593.551 277.26 592.395 277.495 591.117 277.495C589.575 277.495 588.202 277.166 586.999 276.508C585.796 275.85 584.856 274.91 584.179 273.688C583.502 272.466 583.163 271.037 583.163 269.401C583.163 267.765 583.492 266.336 584.15 265.114C584.827 263.892 585.767 262.952 586.971 262.294C588.174 261.636 589.556 261.307 591.117 261.307C592.639 261.307 593.993 261.626 595.178 262.266C596.362 262.905 597.284 263.817 597.942 265.001C598.618 266.186 598.957 267.568 598.957 269.147ZM594.021 267.878C594.021 267.051 593.739 266.393 593.175 265.904C592.611 265.415 591.906 265.171 591.06 265.171C590.252 265.171 589.565 265.406 589.001 265.876C588.456 266.346 588.118 267.013 587.986 267.878H594.021ZM606.399 264.155C606.963 263.29 607.668 262.614 608.514 262.125C609.361 261.617 610.301 261.363 611.335 261.363V266.468H610.009C608.806 266.468 607.903 266.731 607.302 267.258C606.7 267.765 606.399 268.668 606.399 269.965V277.27H601.577V261.532H606.399V264.155Z" fill="white"/>
<circle cx="548.547" cy="92.6655" r="89.6443" fill="#6217D2" stroke="#6217D2" stroke-width="6.04343"/>
<path d="M539.689 59.0625C546.083 59.0625 552.216 61.6026 556.737 66.1241C561.259 70.6456 563.799 76.778 563.799 83.1723C563.799 89.1442 561.61 94.6338 558.012 98.8623L559.014 99.8638H561.944L580.49 118.41L574.926 123.974L556.38 105.428V102.497L555.379 101.496C551.15 105.094 545.661 107.282 539.689 107.282C533.295 107.282 527.162 104.742 522.641 100.221C518.119 95.6991 515.579 89.5667 515.579 83.1723C515.579 76.778 518.119 70.6456 522.641 66.1241C527.162 61.6026 533.295 59.0625 539.689 59.0625ZM539.689 66.4809C530.416 66.4809 522.998 73.8993 522.998 83.1723C522.998 92.4453 530.416 99.8638 539.689 99.8638C548.962 99.8638 556.38 92.4453 556.38 83.1723C556.38 73.8993 548.962 66.4809 539.689 66.4809Z" fill="white"/>
<rect x="904.173" y="558.344" width="195.908" height="66.4778" fill="#232729"/>
<path d="M964.738 582.139C966.825 582.139 968.649 582.553 970.209 583.38C971.77 584.207 972.973 585.373 973.819 586.877C974.684 588.363 975.116 590.083 975.116 592.038C975.116 593.975 974.684 595.695 973.819 597.199C972.973 598.704 971.76 599.869 970.181 600.697C968.62 601.524 966.806 601.938 964.738 601.938H957.321V582.139H964.738ZM964.428 597.764C966.251 597.764 967.671 597.265 968.686 596.269C969.702 595.272 970.209 593.862 970.209 592.038C970.209 590.215 969.702 588.795 968.686 587.78C967.671 586.764 966.251 586.257 964.428 586.257H962.143V597.764H964.428ZM992.722 593.815C992.722 594.266 992.694 594.736 992.637 595.225H981.723C981.798 596.203 982.108 596.955 982.653 597.481C983.217 597.989 983.904 598.243 984.712 598.243C985.916 598.243 986.752 597.735 987.222 596.72H992.355C992.092 597.754 991.612 598.685 990.917 599.512C990.24 600.339 989.384 600.988 988.35 601.458C987.316 601.928 986.16 602.163 984.881 602.163C983.34 602.163 981.967 601.834 980.764 601.176C979.561 600.518 978.62 599.578 977.944 598.356C977.267 597.134 976.928 595.705 976.928 594.069C976.928 592.433 977.257 591.004 977.915 589.782C978.592 588.56 979.532 587.62 980.736 586.962C981.939 586.304 983.321 585.975 984.881 585.975C986.404 585.975 987.758 586.294 988.943 586.934C990.127 587.573 991.048 588.485 991.706 589.669C992.383 590.854 992.722 592.236 992.722 593.815ZM987.786 592.546C987.786 591.719 987.504 591.061 986.94 590.572C986.376 590.083 985.671 589.839 984.825 589.839C984.017 589.839 983.33 590.074 982.766 590.544C982.221 591.014 981.883 591.681 981.751 592.546H987.786ZM1003.24 590.205H1000.64V601.938H995.821V590.205H994.072V586.2H995.821V585.749C995.821 583.813 996.376 582.346 997.485 581.35C998.594 580.334 1000.22 579.827 1002.36 579.827C1002.72 579.827 1002.98 579.836 1003.15 579.855V583.944C1002.23 583.888 1001.58 584.019 1001.21 584.339C1000.83 584.659 1000.64 585.232 1000.64 586.059V586.2H1003.24V590.205ZM1008.01 584.565C1007.16 584.565 1006.46 584.32 1005.92 583.831C1005.39 583.324 1005.13 582.703 1005.13 581.97C1005.13 581.218 1005.39 580.597 1005.92 580.109C1006.46 579.601 1007.16 579.347 1008.01 579.347C1008.83 579.347 1009.51 579.601 1010.04 580.109C1010.58 580.597 1010.85 581.218 1010.85 581.97C1010.85 582.703 1010.58 583.324 1010.04 583.831C1009.51 584.32 1008.83 584.565 1008.01 584.565ZM1010.4 586.2V601.938H1005.58V586.2H1010.4ZM1023.56 586.031C1025.4 586.031 1026.87 586.633 1027.96 587.836C1029.07 589.021 1029.63 590.656 1029.63 592.743V601.938H1024.83V593.392C1024.83 592.339 1024.56 591.521 1024.01 590.938C1023.47 590.356 1022.73 590.064 1021.81 590.064C1020.89 590.064 1020.16 590.356 1019.61 590.938C1019.07 591.521 1018.8 592.339 1018.8 593.392V601.938H1013.97V586.2H1018.8V588.287C1019.28 587.592 1019.94 587.046 1020.77 586.652C1021.6 586.238 1022.53 586.031 1023.56 586.031ZM1047.89 593.815C1047.89 594.266 1047.86 594.736 1047.8 595.225H1036.89C1036.96 596.203 1037.27 596.955 1037.82 597.481C1038.38 597.989 1039.07 598.243 1039.88 598.243C1041.08 598.243 1041.92 597.735 1042.39 596.72H1047.52C1047.26 597.754 1046.78 598.685 1046.08 599.512C1045.41 600.339 1044.55 600.988 1043.52 601.458C1042.48 601.928 1041.33 602.163 1040.05 602.163C1038.5 602.163 1037.13 601.834 1035.93 601.176C1034.73 600.518 1033.79 599.578 1033.11 598.356C1032.43 597.134 1032.09 595.705 1032.09 594.069C1032.09 592.433 1032.42 591.004 1033.08 589.782C1033.76 588.56 1034.7 587.62 1035.9 586.962C1037.1 586.304 1038.49 585.975 1040.05 585.975C1041.57 585.975 1042.92 586.294 1044.11 586.934C1045.29 587.573 1046.21 588.485 1046.87 589.669C1047.55 590.854 1047.89 592.236 1047.89 593.815ZM1042.95 592.546C1042.95 591.719 1042.67 591.061 1042.11 590.572C1041.54 590.083 1040.84 589.839 1039.99 589.839C1039.18 589.839 1038.5 590.074 1037.93 590.544C1037.39 591.014 1037.05 591.681 1036.92 592.546H1042.95Z" fill="white"/>
<circle cx="1002.38" cy="417.33" r="89.6443" fill="#178275" stroke="#178275" stroke-width="6.04343"/>
<mask id="mask0_693_135" style="mask-type:alpha" maskUnits="userSpaceOnUse" x="915" y="330" width="175" height="174">
<circle cx="1002.38" cy="417.33" r="83.6008" fill="#C4C4C4" stroke="#2FD926" stroke-width="6.04343"/>
</mask>
<g mask="url(#mask0_693_135)">
<rect x="866.904" y="331.248" width="263.752" height="174.151" stroke="#178275" stroke-width="6.04343"/>
<rect x="880.764" y="329.221" width="311.486" height="206.745" stroke="#178275" stroke-width="0.503619"/>
<rect x="816.479" y="327.732" width="278.476" height="185.896" stroke="#178275" stroke-width="0.503619"/>
<rect x="839.314" y="305.392" width="310.742" height="206.993" stroke="#178275" stroke-width="0.503619"/>
</g>
<circle cx="74.5357" cy="74.5357" r="74.5357" transform="matrix(1 0 0 -1 927.843 491.867)" fill="#178275"/>
<path d="M1021.01 443.951L1034.32 457.261V404.021C1034.32 402.183 1032.83 400.693 1031 400.693H1024.34V430.641C1024.34 432.471 1022.84 433.968 1021.01 433.968H981.083V440.623C981.083 442.461 982.573 443.951 984.41 443.951H1021.01Z" fill="white"/>
<path d="M1017.69 394.038C1017.69 392.201 1016.2 390.711 1014.36 390.711H971.1C969.263 390.711 967.773 392.201 967.773 394.038V440.623L981.083 427.313H1014.36C1016.2 427.313 1017.69 425.824 1017.69 423.986V394.038Z" fill="white"/>
<rect x="748.823" y="1105.56" width="195.908" height="66.4778" fill="#232729"/>
<path d="M806.752 1129.35V1149.15H801.929V1129.35H806.752ZM809.363 1141.25C809.363 1139.63 809.664 1138.22 810.266 1136.99C810.886 1135.77 811.723 1134.83 812.776 1134.17C813.829 1133.51 815.004 1133.19 816.301 1133.19C817.335 1133.19 818.275 1133.4 819.122 1133.83C819.986 1134.27 820.663 1134.85 821.152 1135.58V1128.28H825.975V1149.15H821.152V1146.89C820.701 1147.64 820.052 1148.25 819.206 1148.7C818.379 1149.15 817.411 1149.37 816.301 1149.37C815.004 1149.37 813.829 1149.05 812.776 1148.39C811.723 1147.71 810.886 1146.76 810.266 1145.54C809.664 1144.3 809.363 1142.87 809.363 1141.25ZM821.152 1141.28C821.152 1140.08 820.814 1139.13 820.137 1138.43C819.479 1137.74 818.67 1137.39 817.711 1137.39C816.753 1137.39 815.935 1137.74 815.258 1138.43C814.6 1139.11 814.271 1140.05 814.271 1141.25C814.271 1142.45 814.6 1143.41 815.258 1144.13C815.935 1144.82 816.753 1145.17 817.711 1145.17C818.67 1145.17 819.479 1144.82 820.137 1144.13C820.814 1143.43 821.152 1142.48 821.152 1141.28ZM844.374 1141.03C844.374 1141.48 844.346 1141.95 844.289 1142.44H833.375C833.45 1143.41 833.76 1144.17 834.306 1144.69C834.87 1145.2 835.556 1145.45 836.364 1145.45C837.568 1145.45 838.404 1144.95 838.874 1143.93H844.007C843.744 1144.97 843.265 1145.9 842.569 1146.72C841.892 1147.55 841.037 1148.2 840.003 1148.67C838.968 1149.14 837.812 1149.37 836.534 1149.37C834.992 1149.37 833.619 1149.05 832.416 1148.39C831.213 1147.73 830.273 1146.79 829.596 1145.57C828.919 1144.34 828.58 1142.92 828.58 1141.28C828.58 1139.64 828.909 1138.22 829.568 1136.99C830.244 1135.77 831.184 1134.83 832.388 1134.17C833.591 1133.51 834.973 1133.19 836.534 1133.19C838.057 1133.19 839.41 1133.51 840.595 1134.14C841.779 1134.78 842.701 1135.7 843.359 1136.88C844.036 1138.06 844.374 1139.45 844.374 1141.03ZM839.438 1139.76C839.438 1138.93 839.156 1138.27 838.592 1137.78C838.028 1137.29 837.323 1137.05 836.477 1137.05C835.669 1137.05 834.982 1137.28 834.418 1137.75C833.873 1138.22 833.535 1138.89 833.403 1139.76H839.438ZM846.035 1141.25C846.035 1139.63 846.336 1138.22 846.937 1136.99C847.558 1135.77 848.394 1134.83 849.447 1134.17C850.5 1133.51 851.675 1133.19 852.973 1133.19C854.082 1133.19 855.05 1133.41 855.878 1133.86C856.724 1134.31 857.372 1134.91 857.824 1135.64V1133.41H862.646V1149.15H857.824V1146.92C857.353 1147.65 856.695 1148.25 855.849 1148.7C855.022 1149.15 854.054 1149.37 852.944 1149.37C851.666 1149.37 850.5 1149.05 849.447 1148.39C848.394 1147.71 847.558 1146.76 846.937 1145.54C846.336 1144.3 846.035 1142.87 846.035 1141.25ZM857.824 1141.28C857.824 1140.08 857.485 1139.13 856.808 1138.43C856.15 1137.74 855.342 1137.39 854.383 1137.39C853.424 1137.39 852.606 1137.74 851.929 1138.43C851.271 1139.11 850.942 1140.05 850.942 1141.25C850.942 1142.45 851.271 1143.41 851.929 1144.13C852.606 1144.82 853.424 1145.17 854.383 1145.17C855.342 1145.17 856.15 1144.82 856.808 1144.13C857.485 1143.43 857.824 1142.48 857.824 1141.28ZM874.982 1145.06V1149.15H872.528C870.78 1149.15 869.416 1148.73 868.439 1147.88C867.461 1147.01 866.972 1145.61 866.972 1143.68V1137.42H865.054V1133.41H866.972V1129.58H871.795V1133.41H874.954V1137.42H871.795V1143.73C871.795 1144.2 871.908 1144.54 872.133 1144.75C872.359 1144.96 872.735 1145.06 873.261 1145.06H874.982ZM892.578 1141.03C892.578 1141.48 892.55 1141.95 892.494 1142.44H881.579C881.654 1143.41 881.965 1144.17 882.51 1144.69C883.074 1145.2 883.76 1145.45 884.569 1145.45C885.772 1145.45 886.609 1144.95 887.079 1143.93H892.212C891.948 1144.97 891.469 1145.9 890.773 1146.72C890.096 1147.55 889.241 1148.2 888.207 1148.67C887.173 1149.14 886.016 1149.37 884.738 1149.37C883.196 1149.37 881.824 1149.05 880.62 1148.39C879.417 1147.73 878.477 1146.79 877.8 1145.57C877.123 1144.34 876.785 1142.92 876.785 1141.28C876.785 1139.64 877.114 1138.22 877.772 1136.99C878.449 1135.77 879.389 1134.83 880.592 1134.17C881.795 1133.51 883.177 1133.19 884.738 1133.19C886.261 1133.19 887.615 1133.51 888.799 1134.14C889.984 1134.78 890.905 1135.7 891.563 1136.88C892.24 1138.06 892.578 1139.45 892.578 1141.03ZM887.643 1139.76C887.643 1138.93 887.361 1138.27 886.797 1137.78C886.233 1137.29 885.528 1137.05 884.681 1137.05C883.873 1137.05 883.187 1137.28 882.623 1137.75C882.077 1138.22 881.739 1138.89 881.607 1139.76H887.643Z" fill="white"/>
<circle cx="847.029" cy="964.544" r="89.6443" fill="#FF5100" stroke="#FF5100" stroke-width="6.04343"/>
<mask id="mask1_693_135" style="mask-type:alpha" maskUnits="userSpaceOnUse" x="760" y="877" width="174" height="175">
<circle cx="847.029" cy="964.544" r="83.6008" fill="#C4C4C4" stroke="#2FD926" stroke-width="6.04343"/>
</mask>
<g mask="url(#mask1_693_135)">
<rect x="711.554" y="878.463" width="263.752" height="174.151" stroke="#FF5100" stroke-width="6.04343"/>
<rect x="725.414" y="876.435" width="311.486" height="206.745" stroke="#FF5100" stroke-width="0.503619"/>
<rect x="661.129" y="874.951" width="278.476" height="185.896" stroke="#FF5100" stroke-width="0.503619"/>
<rect x="683.964" y="852.611" width="310.742" height="206.993" stroke="#FF5100" stroke-width="0.503619"/>
</g>
<circle cx="57.4126" cy="57.4126" r="57.4126" transform="matrix(1 0 0 -1 789.616 1021.96)" fill="#FF5100"/>
<path d="M833.701 938.914C833.701 936.649 831.864 934.813 829.6 934.813H823.448C821.184 934.814 819.348 936.649 819.348 938.914V943.016H833.701V938.914ZM833.701 947.117H819.348V975.823H833.701V947.117ZM833.701 983.249V979.924H819.348V983.249L826.524 994.789L833.701 983.249Z" fill="white"/>
<path d="M854.846 972.234H862.535C867.844 972.234 872.147 976.537 872.147 981.846C872.147 987.154 867.844 991.457 862.535 991.457H839.468L837.545 995.302H862.535C869.967 995.302 875.991 989.277 875.991 981.846C875.991 974.414 869.967 968.39 862.535 968.39H854.846C851.661 968.39 849.079 965.808 849.079 962.623C849.079 959.438 851.661 956.856 854.846 956.856H860.613C866.983 956.856 872.147 951.692 872.147 945.322V937.633H868.302V945.322C868.302 949.569 864.86 953.011 860.613 953.011H854.846C849.538 953.011 845.235 957.314 845.235 962.623C845.235 967.931 849.538 972.234 854.846 972.234Z" fill="white" stroke="white" stroke-width="2.05045"/>
<rect x="115.203" y="1105.56" width="195.908" height="66.4778" fill="#232729"/>
<path d="M179.494 1149.15L175.376 1141.67H174.22V1149.15H169.397V1129.35H177.491C179.052 1129.35 180.377 1129.62 181.468 1130.17C182.577 1130.71 183.404 1131.47 183.95 1132.42C184.495 1133.36 184.767 1134.42 184.767 1135.58C184.767 1136.9 184.391 1138.07 183.639 1139.11C182.906 1140.14 181.816 1140.88 180.368 1141.31L184.937 1149.15H179.494ZM174.22 1138.26H177.209C178.093 1138.26 178.751 1138.05 179.183 1137.61C179.635 1137.18 179.86 1136.57 179.86 1135.78C179.86 1135.03 179.635 1134.44 179.183 1134C178.751 1133.57 178.093 1133.35 177.209 1133.35H174.22V1138.26ZM202.705 1141.03C202.705 1141.48 202.677 1141.95 202.62 1142.44H191.706C191.781 1143.41 192.091 1144.17 192.637 1144.69C193.201 1145.2 193.887 1145.45 194.695 1145.45C195.899 1145.45 196.735 1144.95 197.205 1143.93H202.338C202.075 1144.97 201.596 1145.9 200.9 1146.72C200.223 1147.55 199.368 1148.2 198.334 1148.67C197.299 1149.14 196.143 1149.37 194.865 1149.37C193.323 1149.37 191.95 1149.05 190.747 1148.39C189.544 1147.73 188.604 1146.79 187.927 1145.57C187.25 1144.34 186.911 1142.92 186.911 1141.28C186.911 1139.64 187.24 1138.22 187.899 1136.99C188.575 1135.77 189.516 1134.83 190.719 1134.17C191.922 1133.51 193.304 1133.19 194.865 1133.19C196.388 1133.19 197.741 1133.51 198.926 1134.14C200.11 1134.78 201.032 1135.7 201.69 1136.88C202.367 1138.06 202.705 1139.45 202.705 1141.03ZM197.769 1139.76C197.769 1138.93 197.487 1138.27 196.923 1137.78C196.359 1137.29 195.654 1137.05 194.808 1137.05C194 1137.05 193.313 1137.28 192.749 1137.75C192.204 1138.22 191.866 1138.89 191.734 1139.76H197.769ZM213.221 1137.42H210.627V1149.15H205.804V1137.42H204.056V1133.41H205.804V1132.96C205.804 1131.02 206.359 1129.56 207.468 1128.56C208.577 1127.55 210.204 1127.04 212.347 1127.04C212.704 1127.04 212.968 1127.05 213.137 1127.07V1131.16C212.216 1131.1 211.567 1131.23 211.191 1131.55C210.815 1131.87 210.627 1132.44 210.627 1133.27V1133.41H213.221V1137.42ZM217.989 1131.78C217.142 1131.78 216.447 1131.53 215.902 1131.04C215.375 1130.53 215.112 1129.91 215.112 1129.18C215.112 1128.43 215.375 1127.81 215.902 1127.32C216.447 1126.81 217.142 1126.56 217.989 1126.56C218.816 1126.56 219.493 1126.81 220.019 1127.32C220.564 1127.81 220.837 1128.43 220.837 1129.18C220.837 1129.91 220.564 1130.53 220.019 1131.04C219.493 1131.53 218.816 1131.78 217.989 1131.78ZM220.386 1133.41V1149.15H215.563V1133.41H220.386ZM233.545 1133.24C235.388 1133.24 236.854 1133.84 237.945 1135.05C239.054 1136.23 239.609 1137.87 239.609 1139.95V1149.15H234.814V1140.6C234.814 1139.55 234.542 1138.73 233.996 1138.15C233.451 1137.57 232.718 1137.28 231.797 1137.28C230.875 1137.28 230.142 1137.57 229.597 1138.15C229.052 1138.73 228.779 1139.55 228.779 1140.6V1149.15H223.956V1133.41H228.779V1135.5C229.268 1134.8 229.926 1134.26 230.753 1133.86C231.58 1133.45 232.511 1133.24 233.545 1133.24ZM257.87 1141.03C257.87 1141.48 257.842 1141.95 257.786 1142.44H246.871C246.946 1143.41 247.257 1144.17 247.802 1144.69C248.366 1145.2 249.052 1145.45 249.861 1145.45C251.064 1145.45 251.901 1144.95 252.371 1143.93H257.504C257.24 1144.97 256.761 1145.9 256.065 1146.72C255.388 1147.55 254.533 1148.2 253.499 1148.67C252.465 1149.14 251.308 1149.37 250.03 1149.37C248.488 1149.37 247.116 1149.05 245.912 1148.39C244.709 1147.73 243.769 1146.79 243.092 1145.57C242.415 1144.34 242.077 1142.92 242.077 1141.28C242.077 1139.64 242.406 1138.22 243.064 1136.99C243.741 1135.77 244.681 1134.83 245.884 1134.17C247.087 1133.51 248.469 1133.19 250.03 1133.19C251.553 1133.19 252.907 1133.51 254.091 1134.14C255.276 1134.78 256.197 1135.7 256.855 1136.88C257.532 1138.06 257.87 1139.45 257.87 1141.03ZM252.935 1139.76C252.935 1138.93 252.653 1138.27 252.089 1137.78C251.525 1137.29 250.82 1137.05 249.973 1137.05C249.165 1137.05 248.479 1137.28 247.915 1137.75C247.369 1138.22 247.031 1138.89 246.899 1139.76H252.935Z" fill="white"/>
<circle cx="213.409" cy="964.544" r="89.6443" fill="#3A2D9F" stroke="#3A2D9F" stroke-width="6.04343"/>
<path fill-rule="evenodd" clip-rule="evenodd" d="M212.409 998.482C231.097 998.482 246.246 983.333 246.246 964.646C246.246 945.958 231.097 930.809 212.409 930.809C193.722 930.809 178.572 945.958 178.572 964.646C178.572 983.333 193.722 998.482 212.409 998.482ZM223.747 951.282L229.11 956.761L207.417 977.996L195.709 966.82L201.003 961.275L207.35 967.334L223.747 951.282Z" fill="white"/>
<rect x="0.000488281" y="547" width="195.908" height="66.4778" fill="#232729"/>
<path d="M74.8521 580.437C75.999 580.681 76.9203 581.255 77.6159 582.157C78.3116 583.041 78.6594 584.056 78.6594 585.203C78.6594 586.858 78.0766 588.174 76.9109 589.152C75.764 590.11 74.1564 590.59 72.0882 590.59H62.8659V570.792H71.778C73.7898 570.792 75.3597 571.252 76.4878 572.173C77.6347 573.095 78.2082 574.345 78.2082 575.924C78.2082 577.09 77.898 578.058 77.2775 578.829C76.6758 579.6 75.8674 580.136 74.8521 580.437ZM67.6886 578.801H70.8473C71.637 578.801 72.2386 578.632 72.6523 578.293C73.0847 577.936 73.3009 577.419 73.3009 576.742C73.3009 576.065 73.0847 575.548 72.6523 575.191C72.2386 574.834 71.637 574.655 70.8473 574.655H67.6886V578.801ZM71.2421 586.698C72.0506 586.698 72.6711 586.519 73.1035 586.162C73.5548 585.786 73.7804 585.25 73.7804 584.554C73.7804 583.859 73.5453 583.314 73.0753 582.919C72.6241 582.524 71.9942 582.326 71.1857 582.326H67.6886V586.698H71.2421ZM97.0718 574.853V590.59H92.2491V588.446C91.7603 589.142 91.0928 589.706 90.2467 590.139C89.4195 590.552 88.4982 590.759 87.4829 590.759C86.2796 590.759 85.2173 590.496 84.296 589.969C83.3747 589.424 82.6602 588.644 82.1526 587.629C81.6449 586.613 81.3911 585.419 81.3911 584.047V574.853H86.1856V583.398C86.1856 584.451 86.4582 585.269 87.0034 585.852C87.5487 586.435 88.282 586.726 89.2032 586.726C90.1433 586.726 90.886 586.435 91.4313 585.852C91.9765 585.269 92.2491 584.451 92.2491 583.398V574.853H97.0718ZM103.037 573.217C102.191 573.217 101.495 572.973 100.95 572.484C100.423 571.976 100.16 571.356 100.16 570.622C100.16 569.87 100.423 569.25 100.95 568.761C101.495 568.253 102.191 567.999 103.037 567.999C103.864 567.999 104.541 568.253 105.067 568.761C105.613 569.25 105.885 569.87 105.885 570.622C105.885 571.356 105.613 571.976 105.067 572.484C104.541 572.973 103.864 573.217 103.037 573.217ZM105.434 574.853V590.59H100.611V574.853H105.434ZM113.827 569.72V590.59H109.005V569.72H113.827ZM116.439 582.693C116.439 581.076 116.74 579.657 117.341 578.434C117.962 577.212 118.798 576.272 119.851 575.614C120.904 574.956 122.079 574.627 123.377 574.627C124.411 574.627 125.351 574.843 126.197 575.276C127.062 575.708 127.739 576.291 128.228 577.024V569.72H133.05V590.59H128.228V588.334C127.776 589.086 127.128 589.687 126.282 590.139C125.454 590.59 124.486 590.815 123.377 590.815C122.079 590.815 120.904 590.486 119.851 589.828C118.798 589.152 117.962 588.202 117.341 586.98C116.74 585.739 116.439 584.31 116.439 582.693ZM128.228 582.721C128.228 581.518 127.889 580.568 127.212 579.873C126.554 579.177 125.746 578.829 124.787 578.829C123.828 578.829 123.01 579.177 122.333 579.873C121.675 580.55 121.346 581.49 121.346 582.693C121.346 583.896 121.675 584.855 122.333 585.57C123.01 586.265 123.828 586.613 124.787 586.613C125.746 586.613 126.554 586.265 127.212 585.57C127.889 584.874 128.228 583.925 128.228 582.721Z" fill="white"/>
<circle cx="98.2056" cy="405.986" r="89.6443" fill="#EA3788" stroke="#EA3788" stroke-width="6.04343"/>
<path d="M113.398 409.971L135.1 431.518L122.302 444.162L100.755 422.614V419.068L109.852 409.971H113.398ZM116.906 400.219L113.167 396.518L94.703 415.02V422.614L73.0012 444.316L60.3579 431.518L81.9055 409.971H89.4992L92.5058 406.964L77.7039 392.124H72.6928L61.8612 381.177L71.9604 371.077L82.7535 381.87V386.92L97.7482 401.722L108.002 391.468L104.301 387.575L109.312 382.526H99.0587L96.5532 380.02L109.312 367.223L111.856 369.767V380.02L116.906 374.932L129.549 387.575C133.751 391.815 133.751 398.715 129.549 402.917L121.955 395.169L116.906 400.219Z" fill="white"/>
</svg>
